<svg xmlns="http://www.w3.org/2000/svg" height="1200" width="1600" version="1.1" xmlns:xlink="http://www.w3.org/1999/xlink" xmlns:svgjs="http://svgjs.com/svgjs"><rect fill="#f3ebe9" width="1600" height="1200"></rect><g><path d="M868.05 301.89H865.45V198.46C865.45 163.52 837.11 135.18 802.17 135.18H797.73C762.79 135.18 734.45 163.52 734.45 198.46V301.89H731.84C729.21 301.89 727.05 304.04 727.05 306.68 727.05 309.32 729.21 311.48 731.84 311.48H734.45 865.45 868.05C870.69 311.48 872.85 309.32 872.85 306.68 872.85 304.04 870.69 301.89 868.05 301.89ZM804.74 144.8C833.44 146.35 855.89 170.05 855.89 198.78V212.62H804.74V144.8ZM744.01 198.78C744.01 170.05 766.46 146.35 795.16 144.8V212.62H744.01V198.78ZM744.01 301.89V222.17H795.16V301.86L744.01 301.89ZM804.74 301.89V222.17H855.89V301.86L804.74 301.89Z" fill="#ffa0dc" opacity="1" stroke-width="4" stroke="none"></path></g><g><path d="M1148.14 252.67V218.92H1190.33V252.67H1148.14Z" fill="#ffc930" opacity="1" stroke-width="4" stroke="none"></path><path d="M1123.2 218.92H1216.11" stroke="#ffc930" stroke-width="4" stroke-linecap="round" stroke-linejoin="round" opacity="1" fill="none"></path><path d="M1091.42 329.08L1119.55 237.2H1218.92L1247.05 329.08H1091.42Z" fill="#61ccff" opacity="1" stroke-width="4" stroke="none"></path><path d="M1202.7 329.08L1158.36 237.2H1218.92L1247.05 329.08H1202.7Z" fill="#9fc8dc" opacity="0.25" stroke-width="4" stroke="none"></path><path d="M1169.24 309.48C1154.7 309.48 1142.89 297.67 1142.89 283.14 1142.89 268.61 1154.7 256.8 1169.24 256.8 1183.77 256.8 1195.58 268.61 1195.58 283.14 1195.58 297.67 1183.77 309.48 1169.24 309.48Z" fill="#ffffff" opacity="1" stroke-width="4" stroke="none"></path><path d="M1169.24 254.55V274.23" stroke="#303030" stroke-width="4" stroke-linecap="round" stroke-linejoin="round" opacity="1" fill="none"></path></g><g><path d="M1300.21 317.04L1315.96 318.63 1306.65 331.56 1300.21 317.04Z" fill="#ffc930" opacity="1" stroke-width="4" stroke="none"></path><path d="M1325.51 318.68L1341.35 317.01 1334.84 331.56 1325.51 318.68Z" fill="#ffc930" opacity="1" stroke-width="4" stroke="none"></path><path d="M1300.21 317.04L1310.22 326.6 1306.65 331.56 1300.21 317.04Z" fill="#e3a801" opacity="0.2" stroke-width="4" stroke="none"></path><path d="M1330.88 326.06L1341.33 317.01 1334.84 331.56 1330.88 326.06Z" fill="#e3a801" opacity="0.2" stroke-width="4" stroke="none"></path><path d="M1350.35 326.16C1341.36 326.16 1334.04 318.84 1334.04 309.84 1334.04 304.74 1336.35 300.05 1340.37 296.98 1354.18 286.22 1356.71 266.21 1346.02 252.37 1339.93 244.55 1330.76 240.06 1320.86 240.06 1313.77 240.06 1307.04 242.36 1301.4 246.72 1287.6 257.48 1285.06 277.49 1295.76 291.33 1297.39 293.45 1299.29 295.35 1301.4 296.98 1308.46 302.52 1309.67 312.81 1304.09 319.92 1300.96 323.87 1296.27 326.14 1291.24 326.14 1287.65 326.14 1284.22 324.98 1281.34 322.8 1253.32 301 1248.21 260.45 1269.93 232.4 1282.25 216.57 1300.83 207.49 1320.91 207.49 1335.31 207.49 1348.94 212.16 1360.34 220.99 1373.92 231.51 1382.58 246.72 1384.74 263.82 1386.89 280.91 1382.28 297.8 1371.75 311.4 1368.49 315.61 1364.65 319.45 1360.34 322.8 1357.51 324.97 1353.97 326.16 1350.35 326.16Z" fill="#ffc930" opacity="1" stroke-width="4" stroke="none"></path><path d="M1301.4 296.98C1299.29 295.35 1297.39 293.45 1295.76 291.33 1285.06 277.49 1287.6 257.48 1301.4 246.72 1305.61 243.47 1310.42 241.37 1315.54 240.51 1313.8 240.22 1312.02 240.06 1310.22 240.06 1303.13 240.06 1296.4 242.36 1290.76 246.72 1276.96 257.48 1274.42 277.49 1285.12 291.33 1286.75 293.45 1288.65 295.35 1290.76 296.98 1297.82 302.52 1299.03 312.81 1293.45 319.92 1291.46 322.43 1288.85 324.25 1285.92 325.25 1287.62 325.83 1289.41 326.14 1291.24 326.14 1296.27 326.14 1300.96 323.87 1304.09 319.92 1309.67 312.81 1308.46 302.52 1301.4 296.98Z" fill="#e3a801" opacity="0.2" stroke-width="4" stroke="none"></path><path d="M1384.74 263.82C1382.58 246.72 1373.92 231.51 1360.34 220.99 1348.94 212.16 1335.31 207.49 1320.91 207.49 1319.17 207.49 1317.44 207.58 1315.73 207.72 1328.1 208.75 1339.75 213.28 1349.7 220.99 1363.28 231.51 1371.94 246.72 1374.1 263.82 1376.25 280.91 1371.64 297.8 1361.11 311.4 1357.85 315.61 1354.01 319.45 1349.7 322.8 1348.31 323.87 1346.74 324.7 1345.07 325.27 1346.73 325.84 1348.5 326.16 1350.35 326.16 1353.97 326.16 1357.51 324.97 1360.34 322.8 1364.65 319.45 1368.49 315.61 1371.75 311.4 1382.28 297.8 1386.89 280.91 1384.74 263.82Z" fill="#e3a801" opacity="0.2" stroke-width="4" stroke="none"></path><path d="M1335.22 317.13L1339.62 322.88" stroke="#050505" stroke-width="4" stroke-linecap="round" stroke-linejoin="round" opacity="1" fill="none"></path><path d="M1306.28 317.13L1301.96 322.88" stroke="#050505" stroke-width="4" stroke-linecap="round" stroke-linejoin="round" opacity="1" fill="none"></path></g><g><path d="M379.83 337.41C377.01 322.58 371.98 293.37 388.22 279.96 404.45 266.55 432.25 261.87 453.52 270.26 473.55 278.11 477.69 293.9 485.99 318.43 485.99 318.43 495.25 319.41 496.22 323.02 497.19 327.08 491.64 334.14 491.64 334.14 498.08 354.53 499.31 367.14 492.52 376.85 484.22 388.67 465.87 389.03 456.6 385.23L458.02 391.06 391.04 391.59C387.51 375.7 381.78 347.64 379.83 337.41Z" fill="#ae805a" opacity="1" stroke-width="4" stroke="none"></path><path d="M456.6 385.23C456.6 385.23 446.63 381.35 438.96 376.94 448.31 386.47 458.55 393 458.55 393L456.6 385.23Z" fill="#151413" opacity="0.2" stroke-width="4" stroke="none"></path><path d="M443.41 330.2C443.99 331.76 448.57 318.96 447.16 307.14 447.16 306.7 447.07 306.17 446.9 305.73 445.57 301.49 441.25 299.2 437.01 300.43 421.31 305.2 391.84 311.02 376.83 308.11 376.39 318.7 378.25 328.58 379.48 335.73 380.8 342.61 383.81 357.53 386.63 371.11 392.98 371.82 411.34 370.14 417.98 362.41 419.19 362.11 396.07 343.41 409.84 327.26 420.87 314.38 443.99 331.76 443.58 330.2Z" fill="#cac2bf" opacity="1" stroke-width="4" stroke="none"></path><path d="M423.51 341.47L432.78 348.17" stroke="#000000" stroke-width="4" stroke-linecap="round" stroke-linejoin="round" opacity="1" fill="none"></path><path d="M483.52 344.82C479.37 345.26 476.37 344.29 473.19 341.64" stroke="#000000" stroke-width="4" stroke-linecap="round" stroke-linejoin="round" opacity="1" fill="none"></path><path d="M472.13 320.73C473.74 320.73 475.05 319.42 475.05 317.82 475.05 316.21 473.74 314.91 472.13 314.91 470.53 314.91 469.22 316.21 469.22 317.82 469.22 319.42 470.53 320.73 472.13 320.73Z" fill="#231f20" opacity="1" stroke-width="4" stroke="none"></path><path d="M456.87 385.23C453.52 384.17 448.22 381.53 445.13 379.76" stroke="#000000" stroke-width="4" stroke-linecap="round" stroke-linejoin="round" opacity="1" fill="none"></path><path d="M502.31 374.56C512.02 371.29 516.17 386.82 527.81 389.82 536.64 392.12 534.79 385.67 527.81 378.7 518.99 369.88 500.9 370.41 500.9 363.88 500.9 356.47 519.43 358.32 519.43 358.32 525.87 357.44 540.26 356.91 550.93 363.88 562.05 371.2 565.76 381.53 575.02 404.65 579.61 416.21 584.99 426.18 590.47 437.03L548.99 460.77 525.43 427.32C525.52 427.5 494.46 377.12 502.31 374.56Z" fill="#ae805a" opacity="1" stroke-width="4" stroke="none"></path><path d="M322.04 536.3C326.45 502.06 335.45 456.09 349.39 433.85 360.69 415.76 387.33 405.18 392.54 403.23 393.07 403.06 393.34 402.53 393.25 402 392.89 400.41 392.19 396.88 391.13 392.2 390.95 391.5 391.48 390.88 392.19 390.88H457.22C457.75 390.88 458.19 391.23 458.28 391.76L460.4 400.76C460.49 401.29 460.93 401.65 461.46 401.65 501.7 401.21 525.43 427.59 525.43 427.59L550.4 456.18C550.76 456.53 551.29 456.71 551.73 456.44L589.23 437.38C589.76 437.12 590.47 437.3 590.73 437.91 597.17 450.71 602.82 463.86 607.5 477.27 619.76 512.21 613.06 553.24 569.46 553.24 535.84 553.24 501.17 521.04 493.58 513.54 492.96 512.92 491.9 513.27 491.72 514.15L480.78 582.63C480.69 583.16 480.25 583.6 479.72 583.6L374.63 582.72C374.19 582.72 373.83 582.98 373.66 583.33L348.42 632.4C348.07 633.19 346.92 633.19 346.48 632.48 333.42 610.34 316.74 578.66 322.04 536.3Z" fill="#ffc930" opacity="1" stroke-width="4" stroke="none"></path><path d="M362.19 528.63C362.19 528.63 355.04 558.01 351.69 569.83 362.19 588.28 373.13 606.01 373.13 606.01L373.83 582.8 362.19 528.63Z" fill="#000000" opacity="0.2" stroke-width="4" stroke="none"></path><path d="M478.13 500.65C478.13 500.65 468.78 545.92 450.52 582.54L480.69 582.8 492.17 511.77 478.13 500.65Z" fill="#000000" opacity="0.2" stroke-width="4" stroke="none"></path><path d="M570.96 446.47L551.02 456.62 586.23 497.39C575.2 474.8 570.96 446.47 570.96 446.47Z" fill="#000000" opacity="0.2" stroke-width="4" stroke="none"></path><path d="M493.67 513.27C483.43 504.89 471.43 494.56 471.43 494.56" stroke="#000000" stroke-width="4" stroke-linecap="round" stroke-linejoin="round" opacity="1" fill="none"></path><path d="M551.02 456.62L570.61 479.39" stroke="#000000" stroke-width="4" stroke-linecap="round" stroke-linejoin="round" opacity="1" fill="none"></path><path d="M520.4 358.41C530.55 360.26 538.93 364.94 543.61 369.53" stroke="#000000" stroke-width="4" stroke-linecap="round" stroke-linejoin="round" opacity="1" fill="none"></path><path d="M460.66 401.47L446.28 400.94" stroke="#000000" stroke-width="4" stroke-linecap="round" stroke-linejoin="round" opacity="1" fill="none"></path><path d="M359.19 514.95L373.92 580.86" stroke="#000000" stroke-width="4" stroke-linecap="round" stroke-linejoin="round" opacity="1" fill="none"></path><path d="M377.1 1072.9L313.57 1051.63C311.36 1037.42 309.95 1022.77 309.15 1011.3L397.31 1010.95C396.95 1016.24 397.22 1022.51 398.01 1027.72L377.1 1072.9Z" fill="#ae805a" opacity="1" stroke-width="4" stroke="none"></path><path d="M313.57 1050.75H341.8C347.8 1050.75 353.63 1052.42 358.74 1055.6L369.51 1062.39C371.1 1063.45 373.3 1062.92 374.28 1061.34 374.8 1060.54 374.89 1059.57 374.72 1058.6L370.75 1043.33C368.89 1036.28 373.22 1029.04 380.28 1027.27 381.33 1027.01 382.39 1026.83 383.54 1026.83H398.36C400.84 1040.78 409.13 1053.48 428.81 1065.75 438.69 1072.01 444.96 1077.75 448.84 1082.6L447.69 1084.19H321.51L320.27 1082.6C317.36 1072.28 315.24 1061.42 313.57 1050.75Z" fill="#ffa0dc" opacity="1" stroke-width="4" stroke="none"></path><path d="M448.57 1082.43C456.25 1092.04 454.57 1098.22 454.57 1098.22H325.74C323.62 1093.1 321.86 1087.81 320.36 1082.43H448.57Z" fill="#ffc930" opacity="1" stroke-width="4" stroke="none"></path><path d="M472.58 1011.04C472.22 1016.33 472.58 1022.95 473.37 1028.07L453.43 1069.45 387.78 1051.63C385.57 1037.42 384.95 1023.48 384.16 1011.92L472.31 1010.95 472.58 1011.04Z" fill="#ae805a" opacity="1" stroke-width="4" stroke="none"></path><path d="M480.78 580.86H423.16 422.19 373.92C373.92 580.86 361.57 589.95 350.19 613.78 331.65 652.6 337.92 696.37 338.71 717.02 341.36 785.85 330.77 837.91 324.6 858.21 304.48 924.3 307.74 972.04 308.09 985.89H401.37V985.8H476.46C482.99 944.68 490.84 885.38 498.34 823.79 512.46 707.31 480.78 580.86 480.78 580.86Z" fill="#ffa0dc" opacity="1" stroke-width="4" stroke="none"></path><path d="M308.18 984.04H401.37C399.78 994.01 398.63 1001.77 398.01 1006.27 397.75 1008.48 397.57 1010.6 397.39 1012.8H309.33C308.18 995.86 308.18 984.04 308.18 984.04Z" fill="#f7eff4" opacity="1" stroke-width="4" stroke="none"></path><path d="M393.78 701.31C393.78 701.31 384.07 707.67 385.04 734.05 386.72 783.02 387.6 813.91 376.13 859.79 361.39 911.06 366.86 954.83 382.75 984.04 381.42 960.3 381.42 933.12 384.16 903.12 387.6 865.26 400.84 834.29 401.98 805 403.31 770.41 396.51 735.9 393.78 701.31Z" fill="#5a2c49" opacity="0.2" stroke-width="4" stroke="none"></path><path d="M350.01 614.13C349.74 614.75 349.39 615.37 349.13 615.98 342.42 630.01 339.77 644.49 338.1 658.52 338.98 658.6 339.77 658.6 340.57 658.6 352.57 658.6 364.04 648.81 366.25 636.81L370.22 614.13H350.8 350.01Z" fill="#5a2c49" opacity="1" stroke-width="4" stroke="none"></path><path d="M387.42 1051.01L418.57 1050.75C424.57 1050.75 430.4 1052.42 435.51 1055.6L446.28 1062.39C447.87 1063.45 450.07 1062.92 451.04 1061.34 451.57 1060.54 451.66 1059.57 451.49 1058.6L447.52 1043.33C445.66 1036.28 449.99 1029.04 457.05 1027.27 458.1 1027.01 459.16 1026.83 460.31 1026.83H473.28C475.75 1040.78 484.05 1053.48 503.72 1065.75 513.61 1072.01 519.87 1077.75 523.76 1082.6V1085.43L394.48 1086.13 393.78 1082.95C390.6 1072.72 388.92 1061.69 387.42 1051.01Z" fill="#ffa0dc" opacity="1" stroke-width="4" stroke="none"></path><path d="M443.72 614.13H400.13L396.16 636.81C394.04 648.9 402.07 658.6 414.16 658.6 426.25 658.6 437.63 648.81 439.84 636.81L443.72 614.13Z" fill="#5a2c49" opacity="1" stroke-width="4" stroke="none"></path><path d="M484.75 1050.84L476.02 1058.16" stroke="#f87dcb" stroke-width="4" stroke-linecap="round" stroke-linejoin="round" opacity="1" fill="none"></path><path d="M495.24 1060.5L486.08 1066.9" stroke="#f87dcb" stroke-width="4" stroke-linecap="round" stroke-linejoin="round" opacity="1" fill="none"></path><path d="M523.84 1082.43C529.93 1089.22 528.7 1098.22 528.7 1098.22L398.63 1098.04C396.51 1092.93 394.48 1087.81 392.98 1082.43H523.84Z" fill="#ffc930" opacity="1" stroke-width="4" stroke="none"></path><path d="M382.75 984.04H476.72C475.13 994.01 473.55 1001.77 472.93 1006.27 472.66 1008.48 472.66 1010.6 472.49 1012.8H384.16C383.1 995.86 382.75 984.04 382.75 984.04Z" fill="#f7eff4" opacity="1" stroke-width="4" stroke="none"></path><path d="M393.34 700.25C393.78 705.9 394.48 711.81 395.36 717.9 409.31 814.08 394.57 847.44 389.89 871.44 380.19 921.74 381.51 957.56 382.83 986.42L384.33 1016.42C385.39 1036.01 388.48 1056.13 388.48 1056.13 390.07 1066.81 394.66 1087.9 397.57 1098.22" stroke="#3d2032" stroke-width="4" stroke-linecap="round" stroke-linejoin="round" opacity="1" fill="none"></path></g><g><path d="M1016.57 359.51C1007.76 359.51 1000.6 352.34 1000.6 343.53 1000.6 334.72 1007.76 327.56 1016.57 327.56H1441.46C1450.27 327.56 1457.44 334.72 1457.44 343.53 1457.44 352.34 1450.27 359.51 1441.46 359.51H1016.57Z" fill="#cecece" opacity="1" stroke-width="4" stroke="none"></path></g><g><path d="M988.38 309.33C988.38 309.33 988.2 309.24 988.2 309.06 987.84 299.39 992 290.71 996.88 285.01 1006.82 272.26 1030.51 265.57 1048.32 269.91 1048.41 269.91 1048.51 270 1048.51 270.09 1055.02 291.97 1042.63 323.26 1041.45 326.15 1041.36 326.24 1041.27 326.33 1041.18 326.33 1037.47 325.15 988.38 309.33 988.38 309.33Z" fill="#61ccff" stroke="#fff5da" stroke-width="4" opacity="1"></path><path d="M964.69 526.69L918.4 460.96C918.31 460.87 918.13 460.78 918.04 460.87L903.84 471.35C903.75 471.44 903.57 471.44 903.48 471.26 899.77 466.65 829.88 379.4 819.67 385.37 816.41 387.27 818.13 393.33 818.76 395.41 818.85 395.68 818.58 395.86 818.4 395.68 815.87 394.05 805.92 387.9 795.8 385.37 790.82 383.92 784.13 385.1 780.79 388.44 775.18 393.69 777.44 400.65 778.08 402.19 778.17 402.37 778.08 402.55 777.89 402.55 776.63 402.73 772.38 403.54 770.03 406.71 768.4 408.97 767.95 411.86 768.76 415.48 768.76 415.57 768.76 415.66 768.67 415.75 767.68 416.56 760.81 422.53 766.41 430.4 766.5 430.49 766.5 430.67 766.32 430.76 762.34 433.02 761.08 438.62 765.06 443.96 766.14 445.68 767.59 447.21 769.31 448.66 772.56 451.46 776.81 453.63 781.51 454.9 782.69 455.17 783.77 455.44 784.95 455.62 784.95 455.62 784.95 455.62 785.04 455.62 787.75 455.53 789.65 454.09 790.46 452.01 790.55 451.82 790.82 451.73 790.91 452.01 807.64 484.28 849.86 553.81 902.67 551.37 929.79 550.11 961.8 529.04 964.69 527.05 964.69 526.96 964.78 526.78 964.69 526.69Z" fill="#fdbe80" opacity="1" stroke-width="4" stroke="none"></path><path d="M803.66 405.08C804.84 406.89 805.56 408.79 805.74 410.69 805.74 410.78 805.83 410.87 805.92 410.87L821.11 412.31C821.29 412.31 821.47 412.13 821.38 411.95 812.52 398.57 800.86 398.3 798.06 398.39 797.79 398.39 797.7 398.66 797.88 398.84 800.14 400.74 802.22 402.82 803.66 405.08Z" fill="#000000" opacity="0.2" stroke-width="4" stroke="none"></path><path d="M1021.29 392.24C1021.29 392.06 1021.2 391.97 1021.02 391.97 1011.98 393.33 1002.76 391.61 994.53 387.45 983.23 381.39 979.43 367.29 983.59 346.49 985.85 335.91 986.21 321.99 988.2 309.33 989.65 300.11 992.09 291.61 996.97 285.55 1012.16 266.66 1048.87 263.22 1068.94 279.49 1105.38 306.44 1090.01 356.08 1086.48 391.07 1086.21 393.96 1085.94 396.76 1085.85 399.38 1085.85 399.57 1085.76 399.66 1085.58 399.66 1083.59 399.66 1050.86 406.35 1050.86 406.35 1050.86 406.35 1022.83 399.84 1020.48 399.84 1020.3 399.84 1020.21 399.66 1020.21 399.57L1021.29 392.24Z" fill="#fdbe80" opacity="1" stroke-width="4" stroke="none"></path><path d="M995.25 573.25C995.16 573.25 994.98 573.16 994.98 573.07L987.84 534.64 984.22 512.94C984.22 512.76 983.95 512.67 983.77 512.76 977.98 517.65 971.56 522.35 964.96 526.78 964.87 526.87 964.51 527.14 964.42 527.05L918.04 460.87C917.95 460.78 918.22 460.6 918.31 460.5 927.71 453.54 951.22 436.64 970.48 424.88 990.91 412.95 1009.72 412.58 1018.13 412.58 1018.22 412.58 1018.4 412.49 1018.4 412.4 1018.58 410.87 1020.02 401.46 1020.21 399.93 1020.21 399.84 1020.3 399.75 1020.48 399.75L1085.58 399.29C1085.76 399.29 1085.85 399.38 1085.85 399.57 1085.67 401.37 1084.76 409.69 1084.58 411.77 1084.58 411.95 1084.67 412.04 1084.85 412.04 1132.5 417.47 1148.68 407.07 1203.48 494.41 1203.57 494.5 1203.57 494.68 1203.39 494.77 1200.04 497.57 1148.23 540.97 1144.43 544.14 1144.34 544.23 1144.16 544.23 1144.07 544.05L1131.42 524.52C1131.32 524.34 1130.96 524.34 1130.96 524.61L1120.93 574.43C1120.93 574.52 1120.84 574.61 1120.66 574.61L995.25 573.25Z" fill="#ffa0dc" opacity="1" stroke-width="4" stroke="none"></path><path d="M1113.33 574.25L1118.67 504.17C1118.67 503.9 1119.03 503.81 1119.12 504.08L1130.96 524.07C1130.96 524.16 1130.96 524.16 1130.96 524.25L1120.84 574.61C1120.84 574.7 1120.75 574.79 1120.57 574.79L1113.51 574.61C1113.42 574.52 1113.33 574.43 1113.33 574.25Z" fill="#735869" stroke="#ffa0dc" stroke-width="4" opacity="0.2"></path><path d="M1191.09 831.38C1175.54 742.06 1174.27 636.9 1121.56 571.62 1121.47 571.53 1121.47 571.53 1121.38 571.53 1113.6 571.35 1029.88 571.71 1022.47 571.53 1008.99 572.35 996.34 571.8 994.71 571.9 994.62 571.9 994.53 571.99 994.53 572.08 964.15 661.04 950.22 814.02 977.62 919.54 980.78 936.54 983.77 952.54 986.21 967.73 986.21 967.82 986.3 967.91 986.48 967.91 989.1 967.91 1035.49 976.95 1035.49 976.95 1035.49 976.95 1080.78 967.91 1083.22 967.91 1083.41 967.91 1083.5 967.82 1083.5 967.64 1084.4 901.82 1074.73 869.9 1065.86 830.75 1062.07 813.48 1065.5 794.68 1071.38 774.79 1071.47 774.51 1071.83 774.51 1071.92 774.79 1082.77 818.91 1093.44 863.57 1108.9 909.23 1115.23 928.94 1121.74 949.38 1126.8 967.73 1126.8 967.82 1126.89 967.91 1127.08 967.91 1129.52 967.91 1181.32 975.51 1181.32 975.51 1181.32 975.51 1227.8 967.91 1230.51 967.91 1230.69 967.91 1230.78 967.82 1230.78 967.64 1229.15 906.34 1204.74 875.33 1191.09 831.38Z" fill="#ffffff" opacity="1" stroke-width="4" stroke="none"></path><path d="M1083.95 1080.39C1083.77 1080.39 1083.68 1080.2 1083.77 1080.02 1093.71 1060.95 1116.41 1056.97 1130.6 1040.6 1141.36 1028.76 1134.22 995.67 1126.8 968.18 1126.8 968 1126.89 967.82 1127.08 967.82L1230.33 967.91C1230.51 967.91 1230.6 968 1230.6 968.18 1230.78 1009.5 1222.46 1063.75 1218.39 1080.11 1218.39 1080.2 1218.3 1080.3 1218.12 1080.3 1215.68 1080.3 1161.07 1087.89 1161.07 1087.89 1161.07 1087.89 1088.29 1080.39 1083.95 1080.39Z" fill="#ffa0dc" opacity="1" stroke-width="4" stroke="none"></path><path d="M935.49 1080.39C935.31 1080.39 935.22 1080.2 935.31 1080.02 945.43 1060.95 968.94 1056.97 983.14 1040.6 991.54 1031.38 992.54 1008.96 986.21 968.18 986.21 968 986.3 967.91 986.48 967.91L1083.13 967.73C1083.31 967.73 1083.41 967.82 1083.41 968 1082.59 1009.32 1075.18 1063.75 1070.84 1080.2 1070.84 1080.3 1070.75 1080.39 1070.57 1080.39 1068.13 1080.39 1015.87 1087.98 1015.87 1087.98 1015.87 1087.98 940.01 1080.39 935.49 1080.39Z" fill="#ffa0dc" opacity="1" stroke-width="4" stroke="none"></path><path d="M962.25 805.44C956.64 677.59 992.72 576.87 994.44 572.17 994.44 572.08 994.53 571.99 994.71 571.99L1081.87 571.44C1081.96 571.44 1082.05 571.53 1082.14 571.62 1083.04 574.61 1094.44 614.21 1097.51 666.74 1101.13 718.37 1058.18 776.96 1065.05 826.77 1065.68 831.57 1070.02 848.92 1071.2 854.26 1071.29 854.44 1071.02 854.62 1070.84 854.53L962.43 805.62C962.25 805.62 962.25 805.53 962.25 805.44Z" fill="#7a7a7a" opacity="0.2" stroke-width="4" stroke="none"></path><path d="M1079.34 805.35C1045.61 669.9 1024 577.86 1022.56 571.9 1022.56 571.71 1022.65 571.62 1022.83 571.62H1121.38C1121.47 571.62 1121.56 571.62 1121.56 571.71 1134.85 588.62 1147.42 612.31 1159.26 646.67 1159.26 646.76 1159.26 646.94 1159.17 646.94 1158.54 647.3 1156.19 648.66 1154.29 652.09 1152.21 655.89 1150.31 662.94 1152.57 675.42 1163.51 732.65 1178.16 777.23 1175.36 852.18 1175.36 852.36 1175.18 852.45 1175 852.45 1168.85 849.56 1082.86 807.33 1079.52 805.71 1079.34 805.44 1079.34 805.44 1079.34 805.35Z" fill="#7a7a7a" opacity="0.2" stroke-width="4" stroke="none"></path><path d="M1091.81 573.52C1126.62 685.55 1125.99 779.76 1137.56 826.23 1146.24 861.13 1174.63 910.95 1184.04 966.92" stroke="#ffffff" stroke-width="4" stroke-linecap="round" stroke-linejoin="round" opacity="1" fill="none"></path><path d="M931.15 1095.39C931.6 1089.7 933.05 1084.54 935.13 1080.11 935.13 1080.02 935.22 1079.93 935.4 1079.93L1070.39 1080.11C1070.57 1080.11 1070.66 1080.3 1070.66 1080.48 1068.58 1089.52 1067.04 1094.49 1066.77 1095.49 1066.77 1095.58 1066.68 1095.67 1066.5 1095.67H931.42C931.24 1095.67 931.15 1095.58 931.15 1095.39Z" fill="#ffc930" opacity="1" stroke-width="4" stroke="none"></path><path d="M1079.79 1095.39C1080.15 1089.88 1081.51 1084.64 1083.59 1080.2 1083.59 1080.11 1083.68 1080.02 1083.86 1080.02L1217.94 1080.2C1218.12 1080.2 1218.21 1080.39 1218.21 1080.57 1216.13 1089.61 1214.6 1094.58 1214.33 1095.58 1214.33 1095.67 1214.23 1095.76 1214.05 1095.76 1208.72 1095.85 1086.57 1095.76 1080.06 1095.76 1079.88 1095.67 1079.79 1095.58 1079.79 1095.39Z" fill="#ffc930" opacity="1" stroke-width="4" stroke="none"></path><path d="M1086.21 390.89C1083.13 389.8 1068.13 384.01 1061.25 364.76 1061.25 364.67 1061.25 364.57 1061.34 364.48 1063.15 362.77 1083.77 342.51 1074 330.13 1071.29 326.6 1067.49 324.52 1063.42 324.52 1052.94 324.52 1041.45 337.09 1040.1 338.63 1040.01 338.72 1039.92 338.72 1039.74 338.63 1021.74 327.6 1009.9 309.42 1008.81 307.61 1008.72 307.52 1008.63 307.52 1008.54 307.52 1001.4 309.24 996.34 309.6 993.35 309.6 990.28 309.6 989.56 308.97 989.37 308.7 989.37 308.61 989.28 308.61 989.37 308.52 989.56 307.25 989.83 305.99 990.01 304.63 992.45 282.84 1010.62 270.82 1036.66 270.45 1048.41 270.45 1059.45 272.53 1068.94 279.4 1092.09 297.31 1085.04 318.51 1092.45 342.69 1090.91 358.61 1088.65 379.31 1086.48 390.7 1086.48 390.8 1086.39 390.89 1086.21 390.89Z" fill="#231f20" opacity="1" stroke-width="4" stroke="none"></path><path d="M1076.87 337.72C1076.78 337.72 1076.69 337.63 1076.69 337.45 1076.42 330.76 1070.27 324.52 1063.76 324.79 1059.96 324.79 1055.71 326.33 1051.01 329.4 1050.92 329.4 1050.83 329.49 1050.83 329.4L1041.43 326.42 987.22 308.67C987.47 306.59 987.92 302.91 988.36 299.97 991.75 278.93 1016.15 268.86 1030.55 267.59 1034.93 267.04 1045.04 267.19 1051.6 268.61 1102.91 281.76 1093.5 337.9 1092.69 342.42 1092.69 342.6 1092.51 342.69 1092.33 342.6L1076.87 337.72Z" fill="#f43719" stroke="#61ccff" stroke-width="4" stroke-linejoin="round" opacity="1"></path><path d="M1021.02 391.97C1028.61 390.43 1032.68 389.44 1039.64 387.27" stroke="#000000" stroke-width="4" stroke-linecap="round" stroke-linejoin="round" opacity="1" fill="none"></path><path d="M1053.21 348.48L1062.16 341.7" stroke="#000000" stroke-width="4" stroke-linecap="round" stroke-linejoin="round" opacity="1" fill="none"></path><path d="M1004.65 365.3C1007.46 365.66 1010.26 364.3 1011.8 361.86" stroke="#000000" stroke-width="4" stroke-linecap="round" stroke-linejoin="round" opacity="1" fill="none"></path><path d="M1018.4 343.33C1020.1 343.33 1021.47 341.95 1021.47 340.25 1021.47 338.55 1020.1 337.18 1018.4 337.18 1016.7 337.18 1015.32 338.55 1015.32 340.25 1015.32 341.95 1016.7 343.33 1018.4 343.33Z" fill="#231f20" opacity="1" stroke-width="4" stroke="none"></path><path d="M994.98 339.26C996.67 339.26 998.05 337.88 998.05 336.18 998.05 334.48 996.67 333.11 994.98 333.11 993.28 333.11 991.91 334.48 991.91 336.18 991.91 337.88 993.28 339.26 994.98 339.26Z" fill="#231f20" opacity="1" stroke-width="4" stroke="none"></path><path d="M1002.03 347.12C1001.31 349.2 1000.68 351.74 1000.95 352.55 1001.58 353.63 1002.57 354.54 1003.75 354.9" stroke="#000000" stroke-width="4" stroke-linecap="round" stroke-linejoin="round" opacity="1" fill="none"></path><path d="M1048.96 328.77L964.33 301.56" stroke="#61ccff" stroke-width="4" stroke-linecap="round" stroke-linejoin="round" opacity="1" fill="none"></path><path d="M903.48 471.26L917.31 488.17" stroke="#000000" stroke-width="4" stroke-linecap="round" stroke-linejoin="round" opacity="1" fill="none"></path><path d="M981.51 495.4L984.22 512.49" stroke="#735869" stroke-width="4" stroke-linecap="round" stroke-linejoin="round" opacity="1" fill="none"></path><path d="M1119.12 504.08L1131.05 524.07" stroke="#735869" stroke-width="4" stroke-linecap="round" stroke-linejoin="round" opacity="1" fill="none"></path><path d="M1122.01 415.84C1118.76 414.75 1115.41 414.39 1110.71 414.3 1110.62 414.3 1110.53 414.39 1110.44 414.48L1084.4 488.26C1084.4 488.35 1084.31 488.44 1084.13 488.44H1008.09C1008 488.44 1007.82 488.35 1007.82 488.26L993.35 415.84C993.35 415.66 993.17 415.57 993.08 415.66 988.92 416.29 985.4 417.47 982.32 419.19 982.23 419.28 982.14 419.37 982.23 419.46L995.97 488.35C995.97 488.44 995.97 488.53 995.97 488.71L987.93 534.55V534.64L994.53 572.98C994.53 573.07 994.62 573.16 994.8 573.16L1113.06 574.52C1113.24 574.52 1113.33 574.34 1113.33 574.25L1096.52 489.71C1096.42 489.44 1096.52 489.08 1096.61 488.8L1122.19 416.2C1122.19 416.02 1122.1 415.93 1122.01 415.84Z" fill="#ffc930" opacity="1" stroke-width="4" stroke="none"></path><path d="M1041.27 438.71C1044.86 438.71 1047.78 435.8 1047.78 432.2 1047.78 428.61 1044.86 425.7 1041.27 425.7 1037.67 425.7 1034.76 428.61 1034.76 432.2 1034.76 435.8 1037.67 438.71 1041.27 438.71Z" fill="#735869" opacity="1" stroke-width="4" stroke="none"></path><path d="M1041.27 462.76C1044.86 462.76 1047.78 459.84 1047.78 456.26 1047.78 452.66 1044.86 449.75 1041.27 449.75 1037.67 449.75 1034.76 452.66 1034.76 456.26 1034.76 459.84 1037.67 462.76 1041.27 462.76Z" fill="#735869" opacity="1" stroke-width="4" stroke="none"></path><path d="M1084.49 412.04L1095.79 413.13" stroke="#735869" stroke-width="4" stroke-linecap="round" stroke-linejoin="round" opacity="1" fill="none"></path><path d="M962.25 805.35C955.92 663.39 992.54 576.78 994.35 572.62 994.35 572.53 994.44 572.44 994.53 572.44 1013.06 572.08 1091.81 571.35 1112.43 571.53 1112.52 571.53 1112.61 571.62 1112.7 571.71 1114.33 576.96 1148.77 691.97 1148.87 805.35 1148.87 805.53 1148.77 805.62 1148.59 805.62H962.52C962.34 805.53 962.25 805.44 962.25 805.35Z" fill="#ffc930" opacity="1" stroke-width="4" stroke="none"></path><path d="M1023.55 522.98H1067.94" stroke="#625122" stroke-width="4" stroke-linecap="round" stroke-linejoin="round" opacity="1" fill="none"></path><path d="M1113.6 590.88C1112.16 569.27 1085.85 573.25 1085.58 594.95H1057.55V614.12H1085.58C1085.67 624.25 1092.36 632.38 1100.58 632.38 1115.32 631.84 1117.04 612.76 1107.82 604.44 1111.52 600.83 1113.51 596.04 1113.6 590.88Z" fill="#ffffff" opacity="1" stroke-width="4" stroke="none"></path><path d="M1025.9 603.63C1025.9 575.24 1004.2 551.73 976.54 548.93 974.64 548.75 920.21 545.04 916.77 604.17 916.68 633.92 940.64 658.24 971.29 658.24 1001.4 658.06 1025.9 633.83 1025.9 603.63Z" fill="#ffffff" opacity="1" stroke-width="4" stroke="none"></path><path d="M976.63 548.93C900.04 544.32 894.62 655.89 971.29 658.6 1052.39 657.25 1082.32 614.66 1060.89 582.84 1048.87 565.11 1020.84 550.83 976.63 548.93ZM929.52 603.63C931.24 548.93 1010.53 548.93 1012.25 603.63 1010.53 658.33 931.24 658.33 929.52 603.63Z" fill="#61ccff" opacity="1" stroke-width="4" stroke="none"></path><path d="M970.93 615.57C977.52 615.57 982.86 610.22 982.86 603.63 982.86 597.04 977.52 591.7 970.93 591.7 964.34 591.7 959 597.04 959 603.63 959 610.22 964.34 615.57 970.93 615.57Z" fill="#ffffff" opacity="1" stroke-width="4" stroke="none"></path><path d="M972.29 658.6C931.24 658.6 906.74 621.17 920.03 583.47 920.12 583.2 920.48 583.29 920.48 583.47 935.85 628.86 985.76 626.42 1025.27 607.97 1042.54 600.38 1055.56 591.06 1060.71 583.11 1060.8 582.93 1061.07 582.93 1061.16 583.11 1073.73 602.18 1067.13 621.53 1051.04 635.28 1033.04 650.37 1003.75 658.24 972.29 658.6Z" fill="#262b2d" opacity="0.2" stroke-width="4" stroke="none"></path><path d="M1182.23 636.45C1157.45 637.99 1104.2 616.47 1098.05 613.67 1097.69 613.49 1097.24 613.49 1096.88 613.67 1086.93 618.19 1070.66 616.47 1064.69 614.12H1064.6C1063.24 614.48 1041.72 619.63 1031.24 621.62 1024.18 623.25 1015.23 622.62 1014.15 618.37 1014.15 618.28 1013.97 618.19 1013.88 618.19 1005.47 619.81 1003.48 613.3 1004.47 608.15 1004.47 607.97 1004.38 607.88 1004.29 607.88 997.78 607.07 996.06 602.36 999.05 596.49 999.14 596.4 999.05 596.31 999.05 596.22 991.73 588.17 1001.04 578.04 1024.73 568.73 1025 568.64 1024.91 568.28 1024.64 568.28 1017.67 567.19 1016.05 558.88 1024.46 556.8 1056.82 546.76 1127.89 558.33 1155.65 562.85 1155.83 562.85 1156.01 562.67 1155.92 562.49 1154.11 559.6 1144.62 545.04 1143.44 543.23 1143.35 543.14 1143.35 542.96 1143.53 542.87L1203.2 494.68C1203.29 494.59 1203.48 494.59 1203.57 494.77 1206.01 498.57 1235.66 547.03 1238.29 573.07 1242.44 612.22 1221.47 636.63 1182.23 636.45Z" fill="#fdbe80" opacity="1" stroke-width="4" stroke="none"></path><path d="M999.23 596.4C1013.7 587.99 1028.79 579.4 1044.71 574.16" stroke="#000000" stroke-width="4" stroke-linecap="round" stroke-linejoin="round" opacity="1" fill="none"></path><path d="M1004.56 607.97C1009.36 605.26 1026.99 595.4 1050.86 587.18" stroke="#000000" stroke-width="4" stroke-linecap="round" stroke-linejoin="round" opacity="1" fill="none"></path><path d="M1014.33 618.28C1019.12 615.57 1033.77 609.06 1055.65 599.47" stroke="#000000" stroke-width="4" stroke-linecap="round" stroke-linejoin="round" opacity="1" fill="none"></path><path d="M1024.91 568.64C1031.06 566.56 1040.64 561.95 1050.86 559.87" stroke="#000000" stroke-width="4" stroke-linecap="round" stroke-linejoin="round" opacity="1" fill="none"></path><path d="M818.67 395.68C821.11 401.28 824.01 406.98 827.08 412.22" stroke="#000000" stroke-width="4" stroke-linecap="round" stroke-linejoin="round" opacity="1" fill="none"></path><path d="M856.1 476.51C839.56 449.2 842.45 443.42 835.22 422.98 826.81 403.72 813.79 401.37 803.66 405.17 806.1 409.06 806.92 413.49 803.39 418.1 803.66 418.55 803.93 419.37 804.21 420.36 805.11 424.34 804.93 431.03 797.88 431.21 796.61 431.21 795.8 430.94 795.89 430.94 795.98 431.12 799.14 437.63 796.25 442.06 794.44 444.77 790.82 444.95 789.56 444.95 789.29 444.95 789.29 444.95 789.47 445.13 792.27 449.84 790.19 455.35 784.77 455.53 783.59 455.35 782.42 455.08 781.24 454.81 776.45 453.54 772.29 451.37 769.03 448.57 765.96 455.98 763.52 463.58 761.71 470.81 751.31 510.05 771.48 546.22 812.79 546.13 848.96 546.94 875.72 507.97 856.1 476.51Z" fill="#ffffff" opacity="1" stroke-width="4" stroke="none"></path><path d="M856.19 476.42C839.65 449.11 842.54 443.33 835.31 422.89 829.16 408.06 816.77 400.2 803.66 405.08 806.19 408.97 807.01 413.49 803.48 418.1 803.75 418.55 804.02 419.37 804.3 420.36 806.56 418.73 808.91 417.65 811.35 417.2 819.76 416.83 824.64 431.75 826.09 439.71 828.44 449.47 831.33 461.77 844.53 483.38 850.5 492.78 850.68 504.63 845.07 514.39 833.05 537.72 794.08 537.9 780.34 517.38 768.4 501.19 772.92 475.6 781.42 454.81 776.63 453.54 772.47 451.37 769.22 448.57 766.23 455.98 763.79 463.49 761.98 470.63 751.49 509.78 771.75 546.13 813.07 546.04 848.96 546.85 875.81 507.79 856.19 476.42Z" fill="#61ccff" opacity="1" stroke-width="4" stroke="none"></path><path d="M811.17 511.77C819.25 511.77 825.81 505.21 825.81 497.12 825.81 489.03 819.25 482.48 811.17 482.48 803.08 482.48 796.52 489.03 796.52 497.12 796.52 505.21 803.08 511.77 811.17 511.77Z" fill="#ffffff" opacity="1" stroke-width="4" stroke="none"></path><path d="M778.35 453.9C780.52 454.72 782.69 455.26 784.86 455.53 790.28 455.35 792.27 449.93 789.56 445.13 789.47 444.95 789.38 444.95 789.65 444.95 799.5 445.04 798.06 434.92 795.89 430.94 804.75 432.93 806.01 423.34 803.39 418.1 806.83 413.49 805.65 408.34 803.12 404.45" stroke="#000000" stroke-width="4" stroke-linecap="round" stroke-linejoin="round" opacity="1" fill="none"></path><path d="M766.32 430.31C770.39 433.65 777.8 439.08 789.02 445.13" stroke="#000000" stroke-width="4" stroke-linecap="round" stroke-linejoin="round" opacity="1" fill="none"></path><path d="M769.31 415.84C774.19 419.64 785.31 427.23 796.88 431.3" stroke="#000000" stroke-width="4" stroke-linecap="round" stroke-linejoin="round" opacity="1" fill="none"></path><path d="M777.71 402.19C782.51 406.26 790.1 412.77 802.94 417.83" stroke="#000000" stroke-width="4" stroke-linecap="round" stroke-linejoin="round" opacity="1" fill="none"></path><path d="M803.3 404.45C801.67 402.1 799.5 400.65 797.51 398.57" stroke="#000000" stroke-width="4" stroke-linecap="round" stroke-linejoin="round" opacity="1" fill="none"></path><path d="M1155.65 562.85C1155.65 562.85 1177.44 567.19 1185.84 568.64" stroke="#000000" stroke-width="4" stroke-linecap="round" stroke-linejoin="round" opacity="1" fill="none"></path><path d="M1021.56 391.88C1022.92 391.61 1031.96 389.62 1039.64 387.27 1039.92 387.18 1040.1 387.54 1039.92 387.72L1019.84 406.26C1019.66 406.44 1019.39 406.26 1019.39 406.08L1021.38 392.15C1021.38 391.97 1021.38 391.88 1021.56 391.88Z" fill="#000000" opacity="0.2" stroke-width="4" stroke="none"></path><path d="M981.51 495.4L984.22 512.4C984.22 512.49 984.22 512.58 984.13 512.67 981.96 514.57 968.04 525.78 955.56 532.75 955.29 532.84 955.11 532.56 955.2 532.38 958.09 528.22 970.39 510.59 981.06 495.4 981.15 495.04 981.42 495.13 981.51 495.4Z" fill="#735869" stroke="#ffa0dc" stroke-width="4" opacity="0.2"></path><path d="M903.84 471.26C904.48 470.72 906.83 469 909.9 466.74 910.08 466.65 910.26 466.74 910.26 466.83L917.31 488.08 903.84 471.63C903.75 471.54 903.75 471.35 903.84 471.26Z" fill="#000000" opacity="0.2" stroke-width="4" stroke="none"></path><path d="M1156.19 562.85L1148.5 551.1C1148.32 550.92 1148.59 550.65 1148.87 550.74L1186.03 568.19C1186.3 568.28 1186.21 568.73 1185.84 568.64L1156.37 562.94C1156.28 562.94 1156.19 562.94 1156.19 562.85Z" fill="#000000" opacity="0.2" stroke-width="4" stroke="none"></path></g><g><path d="M1235.24 645.13L1251.01 608.24H1309.18L1324.86 645.13H1235.24Z" fill="#61ccff" opacity="1" stroke-width="4" stroke="none"></path><path d="M1235.24 645.13L1251.01 608.24H1309.18L1313.89 619.37H1276.28C1272.54 630.99 1265.79 639.2 1254.99 645.13H1235.24V645.13Z" fill="#262d30" opacity="0.2" stroke-width="4" stroke="none"></path><path d="M1393.76 510.42V486.93C1393.76 486.77 1393.85 486.69 1394.01 486.69H1424.96C1431.79 486.69 1437.23 492.38 1436.91 499.29 1436.58 505.7 1431.06 510.66 1424.64 510.66H1394.01C1393.85 510.66 1393.76 510.58 1393.76 510.42Z" fill="#61ccff" opacity="1" stroke-width="4" stroke="none"></path><path d="M1393.76 487.1C1393.76 486.93 1393.93 486.85 1394.09 486.93 1395.39 487.58 1400.18 490.59 1400.18 498.64 1400.18 506.44 1395.47 509.69 1394.17 510.42 1394.01 510.5 1393.85 510.42 1393.85 510.25 1393.76 507.41 1393.76 489.78 1393.76 487.1Z" fill="#262d30" opacity="1" stroke-width="4" stroke="none"></path><path d="M1393.76 498.39H1391.49C1386.29 498.39 1381.98 502.62 1381.98 507.9V569.32C1381.98 574.52 1377.76 578.83 1372.48 578.83H1361.1" stroke="#ffc930" stroke-width="4" stroke-linecap="round" stroke-linejoin="round" opacity="1" fill="none"></path><path d="M1325.92 588.17V569.81H1359.48C1363.13 569.81 1366.14 572.82 1366.14 576.47V581.51C1366.14 585.17 1363.13 588.17 1359.48 588.17H1325.92V588.17Z" fill="#ffc930" opacity="1" stroke-width="4" stroke="none"></path><path d="M1257.34 551.85L1245.07 516.84H1315.03L1302.76 551.85H1257.34Z" fill="#61ccff" opacity="1" stroke-width="4" stroke="none"></path><path d="M1257.34 551.85L1245.07 516.84H1315.03L1302.76 551.85H1257.34Z" fill="#61ccff" opacity="1" stroke-width="4" stroke="none"></path><path d="M1257.34 551.85L1245.07 516.84H1315.03L1312.51 523.99C1295.45 524.8 1281.48 535.28 1275.14 551.85H1257.34V551.85Z" fill="#262d30" opacity="0.2" stroke-width="4" stroke="none"></path><path d="M1235.57 520.98L1228.58 480.27C1228.58 480.11 1228.66 480.03 1228.82 480.03H1331.44C1331.61 480.03 1331.69 480.19 1331.69 480.27L1324.7 520.98C1324.7 521.06 1324.62 521.14 1324.46 521.14H1235.89C1235.65 521.14 1235.57 521.06 1235.57 520.98Z" fill="#ffc930" opacity="1" stroke-width="4" stroke="none"></path><path d="M1280.01 499.04C1262.22 499.04 1249.14 493.84 1241.34 489.53 1234.27 485.63 1230.04 481.65 1228.82 480.43 1228.66 480.27 1228.82 480.03 1228.99 480.03H1331.12C1331.36 480.03 1331.44 480.27 1331.28 480.43 1328.6 483.12 1311.29 499.04 1280.01 499.04Z" fill="#262d30" opacity="1" stroke-width="4" stroke="none"></path><path d="M1261.65 610.44V547.79H1326.08C1343.31 547.79 1357.36 561.85 1357.36 579.07 1357.36 596.3 1343.31 610.36 1326.08 610.44H1261.65Z" fill="#61ccff" opacity="1" stroke-width="4" stroke="none"></path><path d="M1290.49 610.44V547.71H1322.43V610.44H1290.49Z" fill="#ffc930" opacity="1" stroke-width="4" stroke="none"></path><path d="M1230.94 626.93C1257.37 626.93 1278.79 605.5 1278.79 579.07 1278.79 552.64 1257.37 531.22 1230.94 531.22 1204.51 531.22 1183.08 552.64 1183.08 579.07 1183.08 605.5 1204.51 626.93 1230.94 626.93Z" fill="#ffc930" opacity="1" stroke-width="4" stroke="none"></path><path d="M1230.94 609.79C1247.9 609.79 1261.65 596.04 1261.65 579.07 1261.65 562.11 1247.9 548.36 1230.94 548.36 1213.98 548.36 1200.22 562.11 1200.22 579.07 1200.22 596.04 1213.98 609.79 1230.94 609.79Z" fill="#61ccff" opacity="1" stroke-width="4" stroke="none"></path><path d="M1230.94 567.37C1233.32 567.37 1235.24 565.45 1235.24 563.07 1235.24 560.69 1233.32 558.76 1230.94 558.76 1228.56 558.76 1226.63 560.69 1226.63 563.07 1226.63 565.45 1228.56 567.37 1230.94 567.37Z" fill="#262d30" opacity="1" stroke-width="4" stroke="none"></path><path d="M1230.94 599.31C1233.32 599.31 1235.24 597.38 1235.24 595 1235.24 592.62 1233.32 590.69 1230.94 590.69 1228.56 590.69 1226.63 592.62 1226.63 595 1226.63 597.38 1228.56 599.31 1230.94 599.31Z" fill="#262d30" opacity="1" stroke-width="4" stroke="none"></path><path d="M1246.94 583.38C1249.32 583.38 1251.25 581.45 1251.25 579.07 1251.25 576.69 1249.32 574.77 1246.94 574.77 1244.56 574.77 1242.64 576.69 1242.64 579.07 1242.64 581.45 1244.56 583.38 1246.94 583.38Z" fill="#262d30" opacity="1" stroke-width="4" stroke="none"></path><path d="M1215.01 583.38C1217.39 583.38 1219.32 581.45 1219.32 579.07 1219.32 576.69 1217.39 574.77 1215.01 574.77 1212.63 574.77 1210.71 576.69 1210.71 579.07 1210.71 581.45 1212.63 583.38 1215.01 583.38Z" fill="#262d30" opacity="1" stroke-width="4" stroke="none"></path><path d="M1230.94 583.38C1233.32 583.38 1235.24 581.45 1235.24 579.07 1235.24 576.69 1233.32 574.77 1230.94 574.77 1228.56 574.77 1226.63 576.69 1226.63 579.07 1226.63 581.45 1228.56 583.38 1230.94 583.38Z" fill="#262d30" opacity="1" stroke-width="4" stroke="none"></path></g><g><path d="M590.41 617.53L684.13 617.53" stroke="#c24995" stroke-width="4" stroke-linecap="round" stroke-linejoin="round" opacity="1" fill="none"></path><path d="M665.6 628.51L665.57 606.58 684.62 617.53 665.6 628.51Z" fill="#ffa0dc" opacity="1" stroke-width="4" stroke="none"></path><path d="M665.59 617.56L665.57 606.58 684.66 617.56 665.59 617.56Z" fill="#c24995" opacity="0.2" stroke-width="4" stroke="none"></path><path d="M782.51 644.47L704.01 644.49C689.14 644.49 677.05 632.4 677.05 617.53 677.05 602.67 689.14 590.58 704.01 590.58L782.51 590.58 782.51 644.47Z" fill="#ffa0dc" opacity="1" stroke-width="4" stroke="none"></path><path d="M677.05 617.53C677.05 620.36 677.49 623.09 678.3 625.65 681.75 614.74 691.97 606.81 704.01 606.81L782.51 606.81 782.51 590.58 704.01 590.58C689.14 590.58 677.05 602.67 677.05 617.53Z" fill="#c24995" opacity="0.2" stroke-width="4" stroke="none"></path><path d="M809.47 617.53C809.47 602.65 797.4 590.58 782.51 590.58 767.62 590.58 755.55 602.65 755.55 617.53 755.55 632.42 767.62 644.49 782.51 644.49 797.4 644.49 809.47 632.42 809.47 617.53Z" fill="#ffc930" opacity="1" stroke-width="4" stroke="none"></path><path d="M775.54 612.77C775.54 610.91 774.03 609.4 772.16 609.4 770.3 609.4 768.78 610.91 768.78 612.77 768.78 614.64 770.3 616.15 772.16 616.15 774.03 616.15 775.54 614.64 775.54 612.77Z" fill="#b0b0b0" opacity="1" stroke-width="4" stroke="none"></path><path d="M783.41 627.78C783.41 625.13 781.27 622.98 778.61 622.98 775.96 622.98 773.81 625.13 773.81 627.78 773.81 630.43 775.96 632.58 778.61 632.58 781.27 632.58 783.41 630.43 783.41 627.78Z" fill="#b0b0b0" opacity="1" stroke-width="4" stroke="none"></path><path d="M799.25 613.3C799.25 610.19 796.73 607.67 793.62 607.67 790.51 607.67 787.99 610.19 787.99 613.3 787.99 616.41 790.51 618.93 793.62 618.93 796.73 618.93 799.25 616.41 799.25 613.3Z" fill="#b0b0b0" opacity="1" stroke-width="4" stroke="none"></path><path d="M676.77 621.81L676.77 613.26" stroke="#c24995" stroke-width="4" stroke-linecap="round" stroke-linejoin="round" opacity="1" fill="none"></path></g><g><path d="M619.88 694.31L1374.9 684.15V1088.18H619.88V694.31Z" fill="#3c2c5b" opacity="1" stroke-width="4" stroke="none"></path><path d="M619.88 703.79L1374.9 703.9V789.11L619.88 718.91V703.79Z" fill="#000000" opacity="0.3" stroke-width="4" stroke="none"></path><path d="M1298.72 900.27C1298.72 844.86 1253.69 799.83 1198.27 799.83 1142.75 799.83 1097.83 844.75 1097.83 900.27 1097.83 844.86 1052.8 799.83 997.39 799.83 941.86 799.83 896.94 844.75 896.94 900.27 896.94 844.86 851.91 799.83 796.5 799.83 740.97 799.83 696.06 844.75 696.06 900.27 696.06 854.11 664.68 813.94 619.88 802.76V1097.66H696.06 896.94 1097.83 1298.72 1374.9V802.88C1330.09 813.94 1298.72 854.23 1298.72 900.27Z" fill="#61ccff" opacity="1" stroke-width="4" stroke="none"></path><path d="M1420.49 644.09H575.19V703.9H1420.49V644.09Z" fill="#4e485b" opacity="1" stroke-width="4" stroke="none"></path><path d="M696.06 890.45V1097.66" stroke="#003852" stroke-width="4" stroke-linecap="round" stroke-linejoin="round" opacity="1" fill="none"></path><path d="M897.39 890.45V1097.66" stroke="#003852" stroke-width="4" stroke-linecap="round" stroke-linejoin="round" opacity="1" fill="none"></path><path d="M1098.28 890.45V1097.66" stroke="#003852" stroke-width="4" stroke-linecap="round" stroke-linejoin="round" opacity="1" fill="none"></path><path d="M1299.17 890.45V1097.66" stroke="#003852" stroke-width="4" stroke-linecap="round" stroke-linejoin="round" opacity="1" fill="none"></path><path d="M1374.9 703.79H619.88" stroke="#000000" stroke-width="4" stroke-linecap="round" stroke-linejoin="round" opacity="1" fill="none"></path></g></svg>